<?xml version="1.0" encoding="utf-8"?>
<!-- Generator: Adobe Illustrator 17.0.2, SVG Export Plug-In . SVG Version: 6.00 Build 0)  -->
<!DOCTYPE svg PUBLIC "-//W3C//DTD SVG 1.1//EN" "http://www.w3.org/Graphics/SVG/1.1/DTD/svg11.dtd">
<svg version="1.1" id="Layer_1" xmlns="http://www.w3.org/2000/svg" xmlns:xlink="http://www.w3.org/1999/xlink" x="0px" y="0px"
	 width="24px" height="72px" viewBox="0 0 24 72" style="enable-background:new 0 0 24 72;" xml:space="preserve">
<style type="text/css">
	.st0{fill:#BBBBBB;}
	.st1{fill:#92C843;}
	.st2{fill:#EF4887;}
</style>
<g>
	<path class="st0" d="M20.4,11.1L6.2,2.3c-1-0.7-1.9-0.2-1.9,1.1v17.2c0,1.3,0.9,1.8,1.9,1.1l14.3-8.8c0,0,0.5-0.4,0.5-0.9
		C20.9,11.5,20.4,11.1,20.4,11.1z"/>
</g>
<g>
	<path class="st1" d="M20.4,35.1L6.2,26.3c-1-0.7-1.9-0.2-1.9,1.1v17.2c0,1.3,0.9,1.8,1.9,1.1l14.3-8.8c0,0,0.5-0.4,0.5-0.9
		S20.4,35.1,20.4,35.1z"/>
</g>
<g>
	<path class="st2" d="M18.7,51H5.3C3.8,51,3,51.5,3,53v14.1c0,1.5,0.8,2,2.3,2h13.5c1.5,0,2.3-0.5,2.3-2V53C21,51.5,20.2,51,18.7,51
		z"/>
</g>
</svg>
